<svg width="100" height="100" viewBox="0 0 100 100" fill="none" xmlns="http://www.w3.org/2000/svg">
<circle cx="50" cy="50" r="50" fill="#FFF4A3"/>
<path d="M60.8729 53.8613C62.1424 53.0996 63.9198 52.3379 63.9198 52.3379C63.9198 52.3379 58.9686 53.2266 54.0174 53.6074C48.0506 54.1152 41.703 54.2422 38.4022 53.7344C30.785 52.7188 42.5916 49.9258 42.5916 49.9258C42.5916 49.9258 38.0213 49.6719 32.4354 52.3379C25.7069 55.6387 48.9393 57.0352 60.8729 53.8613ZM50.0819 49.7988C47.6698 44.4668 39.5448 39.6426 50.0819 31.2637C63.285 20.9805 56.4295 14.125 56.4295 14.125C59.2225 24.916 46.908 28.2168 42.4647 34.8184C39.4178 39.3887 43.8612 44.2129 50.0819 49.7988ZM64.5545 27.4551C64.6815 27.4551 42.3377 33.041 53.0018 45.2285C56.1756 48.9102 52.1131 52.084 52.1131 52.084C52.1131 52.084 60.1112 48.0215 56.4295 42.8164C53.0018 38.1191 50.4627 35.707 64.5545 27.4551ZM63.7928 61.8594C63.7928 61.9863 63.6659 61.9863 63.5389 62.1133C79.9159 57.7969 73.8221 47.0059 66.078 49.7988C65.6971 49.9258 65.3163 50.1797 65.0623 50.5605C65.4432 50.4336 65.951 50.3066 66.4588 50.1797C70.3944 49.418 75.9803 55.5117 63.7928 61.8594ZM69.8866 69.7305C69.8866 69.7305 71.6639 71.2539 67.8553 72.3965C60.492 74.6816 37.2596 75.3164 30.785 72.5234C28.4998 71.5078 32.8163 70.1113 34.2127 69.7305C35.6092 69.4766 36.4979 69.4766 36.4979 69.4766C33.8319 67.6992 19.7401 73.1582 29.2616 74.6816C55.16 78.8711 76.6151 72.7773 69.8866 69.7305ZM41.4491 64.3984C31.4198 67.1914 47.5428 73.0312 60.2381 67.5723C58.9686 67.0645 57.826 66.5566 56.6834 65.7949C50.9705 66.9375 48.3045 66.9375 43.2264 66.4297C38.91 65.9219 41.4491 64.3984 41.4491 64.3984ZM64.3006 76.8398C54.2713 78.6172 41.9569 78.4902 34.5936 77.2207C34.5936 77.2207 36.117 78.4902 43.8612 78.998C55.5409 79.7598 73.5682 78.6172 73.9491 73.0312C73.9491 73.0312 73.1873 75.0625 64.3006 76.8398ZM58.7147 58.9395C51.2245 60.4629 46.908 60.4629 41.3221 59.8281C37.1327 59.4473 39.9256 57.2891 39.9256 57.2891C28.8807 60.9707 46.0194 65.1602 61.3807 60.5898C60.3651 60.3359 59.4764 59.7012 58.7147 58.9395Z" fill="#282A35"/>
</svg>
